<svg width="34" height="40" viewBox="0 0 34 40" fill="none" xmlns="http://www.w3.org/2000/svg">
<path d="M16.873 14.7739L33.2051 24.2057C33.9808 24.6548 33.9808 25.798 33.2051 26.2472L16.873 35.6381L9.60528 39.8436C8.8295 40.2927 7.84958 39.7211 7.84958 38.8228V30.4527L0.581829 26.2472C-0.193943 25.798 -0.193943 24.6548 0.581829 24.2057L16.873 14.7739Z" fill="url(#paint0_linear)"/>
<path d="M0.581829 21.0206L15.8931 29.8807C16.5056 30.2482 17.2405 30.2482 17.853 29.8807L33.2051 21.0206C33.9808 20.5715 33.9808 19.4282 33.2051 18.9791L16.873 9.54736L0.581829 18.9791C-0.193943 19.4282 -0.193943 20.5715 0.581829 21.0206Z" fill="url(#paint1_linear)"/>
<path d="M15.8931 24.6546L0.581829 15.7945C-0.193943 15.3454 -0.193943 14.2021 0.581829 13.753L16.873 4.36208L24.1408 0.156584C24.9166 -0.292547 25.8965 0.279075 25.8965 1.17734V9.5475L33.2051 13.753C33.9808 14.2021 33.9808 15.3454 33.2051 15.7945L17.853 24.6546C17.2813 25.0221 16.5056 25.0221 15.8931 24.6546Z" fill="#85E3FF"/>
<defs>
<linearGradient id="paint0_linear" x1="16.8849" y1="14.8083" x2="16.8849" y2="35.3165" gradientUnits="userSpaceOnUse">
<stop offset="0.0377575" stop-color="#145FD9"/>
<stop offset="0.2541" stop-color="#0C77DA"/>
<stop offset="0.5354" stop-color="#0391DB"/>
<stop offset="0.7047" stop-color="#009ADB"/>
</linearGradient>
<linearGradient id="paint1_linear" x1="16.8848" y1="9.64401" x2="16.8848" y2="28.6257" gradientUnits="userSpaceOnUse">
<stop offset="0.00861019" stop-color="#0F7ADD"/>
<stop offset="0.3487" stop-color="#1CA1EA"/>
<stop offset="0.6484" stop-color="#25BDF4"/>
<stop offset="0.8225" stop-color="#28C7F7"/>
</linearGradient>
</defs>
</svg>
